<svg width="24" height="24" viewBox="0 0 24 24" fill="none" xmlns="http://www.w3.org/2000/svg">
    <path d="M11.653 11.778c.989 0 1.955-.287 2.777-.824a4.914 4.914 0 0 0 1.84-2.194 4.79 4.79 0 0 0 .285-2.825 4.857 4.857 0 0 0-1.368-2.503 5.033 5.033 0 0 0-2.559-1.338 5.1 5.1 0 0 0-2.887.278 4.975 4.975 0 0 0-2.243 1.8 4.814 4.814 0 0 0-.842 2.717c0 1.297.526 2.54 1.463 3.457a5.054 5.054 0 0 0 3.534 1.432zm0-9.167c.865 0 1.71.251 2.43.721a4.3 4.3 0 0 1 1.61 1.92c.33.782.417 1.642.249 2.471a4.25 4.25 0 0 1-1.197 2.19 4.403 4.403 0 0 1-2.239 1.171 4.462 4.462 0 0 1-2.526-.243 4.353 4.353 0 0 1-1.962-1.576A4.212 4.212 0 0 1 7.28 6.89a4.23 4.23 0 0 1 1.28-3.025 4.422 4.422 0 0 1 3.092-1.253zM14.307 13.382h-5.31a5.06 5.06 0 0 0-3.532 1.433A4.841 4.841 0 0 0 4 18.27v3.286h15.304V18.27a4.84 4.84 0 0 0-1.465-3.455 5.06 5.06 0 0 0-3.532-1.433zm4.371 7.562H4.625V18.27a4.236 4.236 0 0 1 1.282-3.023 4.428 4.428 0 0 1 3.09-1.254h5.31c1.16.001 2.27.452 3.09 1.254.82.802 1.28 1.89 1.282 3.023v2.674z" fill="#0B1725" stroke="#0B1725" stroke-width=".8"/>
</svg>
