<svg width="33" height="33" viewBox="0 0 33 33" fill="none" xmlns="http://www.w3.org/2000/svg">
<path d="M14.5818 3.25191L14.5819 3.25192C15.0723 3.27977 15.4997 3.58012 15.6962 4.03522C17.1158 7.31991 20.2454 10.5848 24.2905 12.9853L24.2913 12.9858C24.3004 12.9914 24.3145 13.001 24.3197 13.0046L27.1553 14.6594C29.4537 16.0008 30.2432 18.9813 28.9169 21.3034C27.7781 23.2972 25.4441 24.1676 23.3519 23.5255L18.9527 29.5463L18.8724 29.4865L18.9527 29.5463C18.4509 30.2331 17.5202 30.4296 16.7878 30.0021L15.1035 29.0191C14.6944 28.7804 14.4046 28.3756 14.3082 27.9085L14.3082 27.9085C14.2119 27.4413 14.3175 26.9536 14.5977 26.5701L18.6852 20.9762C14.8387 18.9356 10.8085 17.9903 7.51192 18.3643C7.23066 18.3963 6.95493 18.3354 6.72011 18.1984C6.54755 18.0977 6.39739 17.9561 6.28361 17.7804L6.28359 17.7804C6.01486 17.3652 6.00046 16.84 6.24569 16.4106L8.32467 12.7708C7.34211 11.7993 7.0552 10.2082 7.77405 8.9496C8.4933 7.69034 9.98822 7.16852 11.3104 7.5433L13.3893 3.90361C13.6345 3.47427 14.0917 3.22426 14.5818 3.25191ZM23.1512 21.6699C24.6769 22.5603 26.636 22.0301 27.5175 20.4867C28.3991 18.9433 27.8737 16.9634 26.348 16.073L24.1767 14.8059L20.98 20.4026L23.1512 21.6699ZM12.3545 8.98195L7.95441 16.6857C11.4869 16.4474 15.646 17.4945 19.5712 19.6025L22.7868 13.9726C19.0181 11.5907 16.0416 8.47318 14.4794 5.26174L12.3545 8.98195ZM8.95257 10.4849C8.9884 10.7648 9.07574 11.0378 9.19151 11.2531L10.4472 9.05463C10.2047 9.04226 9.954 9.05057 9.72821 9.10593C9.45455 9.17302 9.22542 9.30696 9.08637 9.5504C8.94452 9.79876 8.90832 10.1393 8.95257 10.4849Z" fill="white" stroke="white" stroke-width="0.2"/>
<path d="M6.57555 1.00044L6.57555 1.00043C6.46209 0.641944 6.65764 0.259241 7.01246 0.14541L7.01248 0.145406C7.36749 0.0315609 7.7474 0.230057 7.86102 0.588725L7.86103 0.588743L8.54458 2.7479L8.54458 2.74791C8.65805 3.1064 8.46249 3.4891 8.10767 3.60293L8.10765 3.60294C7.91929 3.66333 7.72379 3.63579 7.56504 3.54314C7.42453 3.46114 7.31239 3.32792 7.25913 3.15968L6.57555 1.00044Z" fill="white" stroke="white" stroke-width="0.2"/>
<path d="M2.8312 9.1555L2.83121 9.15549L0.222736 10.4256L0.125456 10.4467C0.125454 10.4467 0.125453 10.4467 0.125451 10.4467C0.0455396 10.0792 0.275685 9.71661 0.639542 9.6367L0.639549 9.6367L2.8312 9.1555Z" fill="white" stroke="white" stroke-width="0.2"/>
<path d="M4.38086 4.68898L5.48475 5.33322C5.80798 5.52185 5.91869 5.93864 5.73289 6.26394C5.54709 6.58924 5.13464 6.70072 4.81142 6.51208L3.70752 5.86785C3.3843 5.67922 3.27358 5.26243 3.45938 4.93713C3.64518 4.61182 4.05763 4.50035 4.38086 4.68898Z" fill="white" stroke="white" stroke-width="0.2"/>
</svg>
