<svg width="15" height="19" viewBox="0 0 15 19" fill="none" xmlns="http://www.w3.org/2000/svg">
    <path d="M10.15 5.662a1.206 1.206 0 0 1-1.2-1.2V.5H2.79A1.9 1.9 0 0 0 .895 2.393v13.834a1.9 1.9 0 0 0 1.892 1.893h9.634a1.9 1.9 0 0 0 1.892-1.893V5.662h-4.164zm-6.434 7.227h2.5a.516.516 0 0 1 0 1.032h-2.5a.516.516 0 0 1 0-1.032zM3.2 10.652a.516.516 0 0 1 .516-.516h7.569a.516.516 0 0 1 0 1.032h-7.57a.515.515 0 0 1-.515-.516zm8.085-3.269a.516.516 0 0 1 0 1.032h-7.57a.516.516 0 1 1 0-1.032h7.57z" fill="#fff"/>
    <path d="M9.978 4.459a.172.172 0 0 0 .171.172h3.934a1.887 1.887 0 0 0-.362-.473l-3.318-3.14c-.127-.118-.27-.22-.425-.3v3.74z" fill="#fff"/>
</svg>
