<svg width="24" height="24" viewBox="0 0 24 24" fill="none" xmlns="http://www.w3.org/2000/svg">
    <path d="m20.366 6.647-6.22-5.614A.535.535 0 0 0 13.782.9H3.415c-.274 0-.515.204-.515.474V22.33c0 .27.241.475.515.475h16.589c.273 0 .514-.204.514-.475V6.987a.46.46 0 0 0-.152-.34zm-6.069-.138V2.502l4.446 4.007h-4.445zm5.192 15.347H3.929V1.848h9.34v5.14c0 .27.24.474.514.474h5.706v14.394z" fill="#0B1725" stroke="#0B1725" stroke-width=".2"/>
    <path d="M16.375 11.444a.512.512 0 0 0 .515-.505.511.511 0 0 0-.515-.506H7.044a.511.511 0 0 0-.515.506c0 .28.233.505.515.505h9.33zM16.375 13.878a.512.512 0 0 0 .515-.505.512.512 0 0 0-.515-.506H7.044a.511.511 0 0 0-.515.506c0 .28.233.505.515.505h9.33zM11.738 16.312c.114 0 .195-.085.241-.172a.719.719 0 0 0 .076-.333.718.718 0 0 0-.076-.334c-.046-.086-.127-.172-.241-.172H6.846c-.114 0-.195.086-.241.172a.719.719 0 0 0-.076.334.72.72 0 0 0 .076.333c.046.087.127.172.241.172h4.892z" fill="#0B1725" stroke="#0B1725" stroke-width=".2"/>
</svg>
