<svg width="32" height="31" viewBox="0 0 32 31" fill="none" xmlns="http://www.w3.org/2000/svg">
<path d="M31.331 3.77598H20.631V5.72453H23.784V8.80736H20.636V9.79198H23.789V12.8787H20.636V13.889H23.789V16.8083H20.636V17.9781H23.789V20.9043H20.636V22.0741H23.789V25.0171H20.636V27.1635H31.336C31.505 27.1133 31.646 26.9174 31.759 26.5728C31.858 26.3051 31.9159 26.0243 31.931 25.7398V4.13142C31.931 3.96404 31.872 3.86262 31.759 3.82718C31.6197 3.78941 31.4755 3.77215 31.331 3.77598ZM29.944 25.0122H24.813V22.0721H29.944V25.0122ZM29.944 20.9024H24.813V17.9751H29.944V20.9024ZM29.944 16.8054H24.813V13.8988H29.944V16.8083V16.8054ZM29.944 12.8758H24.813V9.79296H29.944V12.8778V12.8758ZM29.944 8.79062H24.813V5.72552H29.944V8.79062ZM0 3.28958V27.6529L18.836 30.8608V-0.00100708L0 3.30041V3.28958ZM11.165 21.7196C11.093 21.5286 10.757 20.7153 10.157 19.2797C9.557 17.8442 9.199 17.0082 9.094 16.7699H9.06L7.04 21.505L4.34 21.3258L7.542 15.4299L4.609 9.53696L7.363 9.39419L9.183 14.0061H9.219L11.274 9.18152L14.119 9.00429L10.731 15.3826L14.223 21.8899L11.165 21.7127V21.7196Z" fill="white"/>
</svg>
