<svg width="32" height="32" viewBox="0 0 32 32" fill="none" xmlns="http://www.w3.org/2000/svg">
<path d="M21.6211 10.248V10.2487L21.6328 10.2474C21.8082 10.2268 21.9707 10.1456 22.0891 10.018C22.2076 9.89031 22.2737 9.72479 22.2737 9.55253C22.2737 9.38026 22.2076 9.21475 22.0891 9.08702C21.9707 8.95941 21.8082 8.87831 21.6328 8.85771L21.6329 8.85703H21.6211H7.87584V8.85634L7.86418 8.85771C7.68876 8.87831 7.52632 8.95941 7.40791 9.08702C7.28938 9.21475 7.22324 9.38027 7.22324 9.55253C7.22324 9.72479 7.28938 9.89031 7.40791 10.018C7.52632 10.1456 7.68875 10.2268 7.86418 10.2474L7.87584 10.148V10.248H21.6211Z" fill="#29B6AB" stroke="#29B6AB" stroke-width="0.2"/>
<path d="M15.3877 16.0056L15.3761 16.105V16.005H7.88159C7.78166 15.994 7.68037 16.003 7.58412 16.0315C7.48592 16.0605 7.395 16.1092 7.31748 16.1746C7.23993 16.2399 7.17749 16.3205 7.1346 16.4113C7.09171 16.502 7.06943 16.6006 7.06943 16.7005C7.06943 16.8003 7.0917 16.899 7.1346 16.9897C7.17749 17.0804 7.23993 17.161 7.31748 17.2264C7.39502 17.2917 7.48594 17.3404 7.58412 17.3694C7.68035 17.3979 7.78164 17.4069 7.88159 17.396H15.3761V17.3967L15.3877 17.3953C15.5632 17.3747 15.7256 17.2936 15.844 17.166C15.9625 17.0382 16.0287 16.8727 16.0287 16.7005C16.0287 16.5282 15.9625 16.3627 15.844 16.2349C15.7256 16.1073 15.5631 16.0262 15.3877 16.0056Z" fill="#29B6AB" stroke="#29B6AB" stroke-width="0.2"/>
<path d="M28.6081 5.28L28.6009 5.28C28.5733 4.6576 28.3018 4.06703 27.8392 3.62616C27.3514 3.16121 26.6908 2.90055 26.0029 2.9H26.0028L3.50039 2.9L3.50031 2.9C2.81235 2.90055 2.15182 3.16121 1.66397 3.62616C1.17595 4.09127 0.90058 4.72298 0.9 5.38291V5.383L0.899998 28.614L0.900002 28.6146C0.900809 28.7529 0.944304 28.8876 1.02447 29.0018C1.10458 29.1159 1.21763 29.2044 1.34902 29.2569L1.34934 29.257C1.43706 29.2917 1.531 29.3093 1.62571 29.309H1.62576C1.81625 29.3082 1.99965 29.236 2.13596 29.1065L2.13608 29.1064L8.17497 23.353H26.0007H26.0008C26.6892 23.3522 27.3499 23.091 27.8376 22.6254C28.3255 22.1596 28.6003 21.5273 28.6 20.867C28.6 20.867 28.6 20.867 28.6 20.867V11.0298L30.3685 9.34439L30.2995 9.272L30.3685 9.34438C30.7173 9.01187 30.9554 8.58767 31.0519 8.12512C31.1485 7.66253 31.0989 7.18311 30.9096 6.74768C30.7204 6.31232 30.4004 5.94098 29.9907 5.68004C29.5811 5.41912 29.1 5.28008 28.6081 5.28ZM7.87475 21.958L7.87435 21.958C7.68385 21.9588 7.50045 22.031 7.36414 22.1605L7.36402 22.1606L2.34967 26.9396L2.34967 5.38318C2.34967 5.38315 2.34967 5.38313 2.34967 5.38311C2.35019 5.09547 2.47027 4.81873 2.68529 4.61381C2.90047 4.40873 3.19315 4.29251 3.49942 4.292C3.49945 4.292 3.49947 4.292 3.4995 4.292L25.9996 4.292C26.3059 4.29224 26.5988 4.40839 26.814 4.61352C27.0291 4.81849 27.1491 5.09538 27.1493 5.38309V5.73615C27.0417 5.80884 26.9403 5.88974 26.8462 5.97809L26.8456 5.97861L20.0743 12.431H7.88039C7.78045 12.4201 7.67917 12.4291 7.58292 12.4575C7.48473 12.4866 7.39381 12.5352 7.31627 12.6006C7.23872 12.666 7.17629 12.7466 7.1334 12.8373C7.09051 12.928 7.06823 13.0266 7.06823 13.1265C7.06823 13.2264 7.09051 13.325 7.1334 13.4157C7.17629 13.5064 7.23872 13.587 7.31627 13.6524C7.39381 13.7178 7.48473 13.7664 7.58292 13.7955C7.67917 13.8239 7.78045 13.8329 7.88039 13.822H18.9892L18.4143 16.5625L18.4141 16.5633C18.3937 16.6647 18.3969 16.7692 18.4236 16.8692C18.4502 16.9693 18.4994 17.0622 18.5675 17.1414C18.6356 17.2206 18.7209 17.2843 18.817 17.3281C18.9131 17.372 19.0179 17.3951 19.1241 17.396L19.1256 17.396C19.1726 17.3957 19.2194 17.3911 19.2655 17.3822C19.2655 17.3822 19.2655 17.3822 19.2655 17.3822L22.3891 16.7822L22.3897 16.7821C22.5274 16.7548 22.6541 16.6894 22.754 16.5934C22.7542 16.5933 22.7543 16.5932 22.7544 16.5931L27.1442 12.4093L27.1504 20.8668C27.1504 20.8668 27.1504 20.8669 27.1504 20.8669C27.1498 21.1545 27.0298 21.4313 26.8148 21.6362C26.5996 21.8413 26.3068 21.9575 26.0005 21.958H7.87475ZM28.4989 9.16494L27.0282 7.76691L27.8681 6.96641C28.0634 6.78037 28.3293 6.67512 28.6074 6.6752C28.8855 6.67529 29.1513 6.78071 29.3465 6.96687C29.5415 7.15287 29.6501 7.40404 29.65 7.66482C29.6499 7.89767 29.5632 8.1228 29.4057 8.30068L29.346 8.35761L28.4989 9.16494ZM27.4716 10.145L21.8935 15.4603L20.051 15.8117L20.4178 14.0619L25.9997 8.74214L27.4716 10.145Z" fill="#29B6AB" stroke="#29B6AB" stroke-width="0.2"/>
</svg>
