<svg width="24" height="24" viewBox="0 0 24 24" fill="none" xmlns="http://www.w3.org/2000/svg">
<path d="M16.8094 7.5694V7.56973L16.8151 7.56907C16.9432 7.55432 17.0618 7.4962 17.1482 7.40481C17.2348 7.31334 17.283 7.19482 17.283 7.07147C17.283 6.94811 17.2348 6.82959 17.1482 6.73812C17.0618 6.64673 16.9432 6.58862 16.8151 6.57386L16.8151 6.57354H16.8094H6.27132V6.5732L6.2656 6.57386C6.13747 6.58862 6.01887 6.64673 5.93244 6.73812C5.84593 6.82959 5.79766 6.94811 5.79766 7.07147C5.79766 7.19482 5.84593 7.31334 5.93244 7.40481C6.01887 7.4962 6.13746 7.55432 6.2656 7.56907L6.27132 7.5194V7.5694H16.8094Z" fill="#0B1725" stroke="#0B1725" stroke-width="0.1"/>
<path d="M12.0212 12.9461V12.9464L12.027 12.9458C12.1551 12.931 12.2737 12.8729 12.3601 12.7815C12.4466 12.69 12.4949 12.5715 12.4949 12.4481C12.4949 12.3248 12.4466 12.2063 12.3601 12.1148C12.2737 12.0234 12.1551 11.9653 12.027 11.9505L12.0212 12.0002V11.9502H6.27396C6.20049 11.9421 6.12599 11.9485 6.05522 11.9691C5.98351 11.9899 5.91713 12.0247 5.86054 12.0715C5.80393 12.1184 5.75835 12.1761 5.72705 12.241C5.69575 12.306 5.67949 12.3766 5.67949 12.4481C5.67949 12.5197 5.69575 12.5903 5.72705 12.6553C5.75835 12.7202 5.80393 12.7779 5.86054 12.8248C5.91714 12.8716 5.98352 12.9064 6.05522 12.9272C6.12598 12.9477 6.20048 12.9542 6.27396 12.9461H12.0212Z" fill="#0B1725" stroke="#0B1725" stroke-width="0.1"/>
<path d="M22.1662 3.9353C22.1381 3.9353 22.1115 3.94207 22.0858 3.94282V3.9353C22.0854 3.46003 21.8832 3.00434 21.5238 2.66827C21.1644 2.3322 20.6771 2.14322 20.1688 2.14282H2.91696C2.40868 2.14322 1.92134 2.3322 1.56194 2.66827C1.20253 3.00434 1.00043 3.46003 1 3.9353L1 21.4095C1.00053 21.498 1.02887 21.5845 1.0815 21.658C1.13414 21.7316 1.20874 21.789 1.29603 21.8233C1.35416 21.8458 1.41651 21.8573 1.47944 21.8571C1.60646 21.8566 1.72814 21.8093 1.81811 21.7255L6.47014 17.377H20.1672C20.6758 17.3764 21.1633 17.1871 21.5226 16.8505C21.8819 16.514 22.0836 16.0578 22.0834 15.5823V8.1506L23.463 6.86059C23.7194 6.62074 23.894 6.31519 23.9648 5.98255C24.0355 5.64991 23.9992 5.30513 23.8604 4.99179C23.7216 4.67845 23.4866 4.41063 23.185 4.22218C22.8835 4.03372 22.5289 3.93311 22.1662 3.93305V3.9353ZM21.1253 15.5823C21.1249 15.8198 21.0238 16.0474 20.8442 16.2153C20.6646 16.3832 20.4212 16.4778 20.1672 16.4782H6.27064C6.14363 16.4787 6.02194 16.526 5.93197 16.6098L1.95808 20.3256V3.9353C1.9585 3.69783 2.05958 3.47019 2.23916 3.30227C2.41875 3.13435 2.66219 3.03984 2.91616 3.03944H20.1664C20.4204 3.03964 20.664 3.13409 20.8436 3.30205C21.0233 3.47002 21.1243 3.69777 21.1245 3.9353V4.24145C21.0327 4.29938 20.9468 4.3651 20.8679 4.43777L15.6543 9.31199H6.27064C6.20279 9.30418 6.13393 9.30993 6.06864 9.32887C6.00334 9.34781 5.9431 9.3795 5.89189 9.42185C5.84068 9.4642 5.79967 9.51624 5.77159 9.57452C5.7435 9.6328 5.72898 9.696 5.72898 9.75993C5.72898 9.82385 5.7435 9.88705 5.77159 9.94533C5.79967 10.0036 5.84068 10.0557 5.89189 10.098C5.9431 10.1403 6.00334 10.172 6.06864 10.191C6.13393 10.2099 6.20279 10.2157 6.27064 10.2079H14.8861L14.426 12.3599C14.4127 12.4248 14.4148 12.4917 14.4321 12.5559C14.4495 12.62 14.4818 12.6797 14.5266 12.7309C14.5714 12.782 14.6277 12.8234 14.6915 12.8519C14.7553 12.8805 14.825 12.8956 14.8958 12.8962C14.9271 12.896 14.9584 12.893 14.9891 12.8872L17.3839 12.4359C17.4754 12.418 17.5594 12.3754 17.6252 12.3133L21.1205 9.04497L21.1253 15.5823ZM17.0549 11.5851L15.5071 11.8747L15.8168 10.4252L20.1664 6.35812L21.406 7.51726L17.0549 11.5851ZM22.7848 6.22724L22.0826 6.88391L20.8437 5.72854L21.546 5.07187C21.7104 4.91826 21.9333 4.832 22.1657 4.83207C22.3981 4.83214 22.621 4.91854 22.7852 5.07225C22.9495 5.22596 23.0418 5.43439 23.0417 5.6517C23.0416 5.86901 22.9492 6.07739 22.7848 6.231V6.22724Z" fill="#0B1725"/>
</svg>
