<svg xmlns="http://www.w3.org/2000/svg" width="31.05" height="28.646" viewBox="0 0 31.05 28.646">
  <g id="heart_4_" data-name="heart (4)" transform="translate(0 -35.514)">
    <g id="Group_464" data-name="Group 464" transform="translate(0 35.514)">
      <path id="Path_13244" data-name="Path 13244" d="M22.246,35.515h0a8.388,8.388,0,0,0-6.721,3.46A8.276,8.276,0,0,0,8.8,35.515c-4.862,0-8.8,4.392-8.8,9.811,0,9.285,14.542,18.351,15.132,18.7a.648.648,0,0,0,.786,0c.59-.35,15.132-9.285,15.132-18.7C31.05,39.907,27.108,35.515,22.246,35.515ZM15.525,62.275c-2.28-1.489-13.953-9.417-13.953-16.95,0-4.451,3.238-8.059,7.232-8.059A6.921,6.921,0,0,1,14.857,40.9a.772.772,0,0,0,1.153.2.879.879,0,0,0,.184-.2A6.8,6.8,0,0,1,26.2,38.567a8.331,8.331,0,0,1,3.274,6.758C29.478,52.946,17.8,60.83,15.525,62.275Z" transform="translate(0 -35.514)" fill="#aaa"/>
    </g>
  </g>
</svg>
