<?xml version="1.0" encoding="utf-8"?>
<!-- Generator: Adobe Illustrator 16.0.0, SVG Export Plug-In . SVG Version: 6.00 Build 0)  -->
<!DOCTYPE svg PUBLIC "-//W3C//DTD SVG 1.1//EN" "http://www.w3.org/Graphics/SVG/1.1/DTD/svg11.dtd">
<svg version="1.1" id="Layer_1" xmlns="http://www.w3.org/2000/svg" xmlns:xlink="http://www.w3.org/1999/xlink" x="0px" y="0px"
	 width="512px" height="512px" viewBox="0 0 512 512" enable-background="new 0 0 512 512" xml:space="preserve">
<rect x="147.5" y="167.5" fill="#FFFFFF" width="164" height="132"/>
<linearGradient id="SVGID_1_" gradientUnits="userSpaceOnUse" x1="-581.7764" y1="782.7471" x2="-571.2258" y2="794.0887" gradientTransform="matrix(0 -42.2827 39.3387 0 -30759.3945 -24119.7871)">
	<stop  offset="0" style="stop-color:#FFDD55"/>
	<stop  offset="0.5" style="stop-color:#FF543E"/>
	<stop  offset="1" style="stop-color:#C837AB"/>
</linearGradient>
<path fill="url(#SVGID_1_)" d="M32,34.837C-8.235,76.629,0,121.024,0,255.894c0,112-19.542,224.277,82.73,250.709
	c31.936,8.214,314.901,8.214,346.795-0.043c42.581-10.986,77.227-45.524,81.963-105.749c0.661-8.405,0.661-281.28-0.021-289.856
	c-5.035-64.149-44.522-101.12-96.555-108.608C402.986,0.619,400.598,0.106,339.414,0C122.389,0.106,74.816-9.557,32,34.837
	L32,34.837z"/>
<path fill="#FFFFFF" d="M255.958,66.965c-77.461,0-151.019-6.891-179.115,65.216c-11.605,29.782-9.92,68.459-9.92,123.84
	c0,48.598-1.558,94.271,9.92,123.818c28.032,72.149,102.187,65.237,179.072,65.237c74.176,0,150.656,7.723,179.093-65.237
	c11.627-30.08,9.92-68.182,9.92-123.818c0-73.856,4.075-121.536-31.744-157.333c-36.266-36.267-85.312-31.723-157.312-31.723
	H255.958z M239.019,101.035c161.579-0.256,182.145-18.219,170.795,231.317c-4.032,88.257-71.232,78.571-153.835,78.571
	c-150.613,0-154.944-4.31-154.944-154.987c0-152.427,11.947-154.816,137.984-154.944V101.035z M356.864,132.416
	c-12.522,0-22.678,10.155-22.678,22.677c0,12.523,10.155,22.677,22.678,22.677s22.677-10.154,22.677-22.677
	C379.541,142.571,369.387,132.416,356.864,132.416z M255.958,158.934c-53.611,0-97.067,43.477-97.067,97.088
	c0,53.61,43.456,97.066,97.067,97.066s97.045-43.456,97.045-97.066C353.003,202.411,309.568,158.933,255.958,158.934
	L255.958,158.934z M255.958,193.003c83.306,0,83.414,126.037,0,126.037C172.672,319.04,172.544,193.003,255.958,193.003z"/>
</svg>
