<svg width="24" height="25" viewBox="0 0 24 25" fill="none" xmlns="http://www.w3.org/2000/svg">
<path d="M22.6712 22.047L17.1427 16.295C18.5145 14.6597 19.2874 12.6052 19.3339 10.471C19.3803 8.33679 18.6974 6.25061 17.398 4.55717C16.0986 2.86374 14.2605 1.66441 12.1875 1.15737C10.1144 0.650323 7.93039 0.865907 5.99639 1.7685C4.06239 2.67109 2.49412 4.20666 1.55072 6.12148C0.60733 8.0363 0.345277 10.2158 0.807867 12.2997C1.27046 14.3837 2.43 16.2474 4.0949 17.5829C5.75979 18.9185 7.83039 19.6459 9.96455 19.645C11.8886 19.6493 13.7665 19.0553 15.3381 17.945L20.9087 23.745C21.0203 23.8608 21.1536 23.9535 21.301 24.0178C21.4484 24.0821 21.6071 24.1167 21.7678 24.1197C21.9286 24.1227 22.0884 24.0939 22.2381 24.0351C22.3878 23.9763 22.5245 23.8886 22.6402 23.777C22.756 23.6654 22.8487 23.532 22.913 23.3846C22.9773 23.2371 23.0119 23.0784 23.0149 22.9176C23.0178 22.7568 22.9891 22.5969 22.9303 22.4472C22.8715 22.2975 22.7838 22.1608 22.6722 22.045L22.6712 22.047ZM9.96355 3.32998C11.3346 3.32998 12.6749 3.73666 13.8149 4.49857C14.9549 5.26049 15.8434 6.34343 16.3681 7.61046C16.8927 8.87748 17.03 10.2717 16.7625 11.6167C16.4951 12.9618 15.8348 14.1973 14.8653 15.1671C13.8959 16.1368 12.6607 16.7972 11.316 17.0647C9.97124 17.3323 8.5774 17.195 7.31071 16.6702C6.04402 16.1453 4.96136 15.2566 4.19964 14.1163C3.43792 12.976 3.03135 11.6354 3.03135 10.264C3.03347 8.42562 3.7645 6.66316 5.06408 5.36324C6.36366 4.06333 8.12566 3.3321 9.96355 3.32998Z" fill="white"/>
</svg>
