<svg width="33" height="30" viewBox="0 0 33 30" fill="none" xmlns="http://www.w3.org/2000/svg">
<path d="M11.0325 22.1755C10.3026 22.1755 9.58902 22.3903 8.98208 22.7927C8.37514 23.1951 7.90209 23.7671 7.62274 24.4363C7.3434 25.1055 7.27031 25.8418 7.41271 26.5522C7.55512 27.2626 7.90664 27.9152 8.4228 28.4273C8.93896 28.9395 9.59659 29.2883 10.3125 29.4296C11.0285 29.5709 11.7705 29.4984 12.4449 29.2212C13.1193 28.944 13.6958 28.4746 14.1013 27.8724C14.5068 27.2701 14.7233 26.5621 14.7233 25.8378C14.7233 24.8665 14.3345 23.935 13.6423 23.2482C12.9502 22.5614 12.0114 22.1755 11.0325 22.1755ZM11.0325 28.1542C10.5707 28.1544 10.1193 28.0187 9.7352 27.7642C9.35114 27.5098 9.05177 27.148 8.87496 26.7247C8.69814 26.3014 8.65183 25.8355 8.74187 25.3861C8.83192 24.9366 9.05427 24.5238 9.38082 24.1998C9.70737 23.8758 10.1234 23.6551 10.5764 23.5658C11.0293 23.4764 11.4988 23.5224 11.9254 23.6978C12.352 23.8733 12.7166 24.1703 12.973 24.5514C13.2295 24.9325 13.3663 25.3805 13.3661 25.8388C13.3645 26.4519 13.118 27.0394 12.6806 27.4726C12.2431 27.9057 11.6505 28.149 11.0325 28.1493V28.1542Z" fill="black" stroke="#0B1725" stroke-width="0.5"/>
<path d="M31.1498 6.80603H7.19265L6.70353 4.09185C6.55719 3.27587 6.16185 2.52416 5.57097 1.93838C4.98009 1.3526 4.22218 0.960992 3.39971 0.816521L1.62875 0.510351C1.4514 0.47915 1.26882 0.519135 1.12118 0.621508C0.973539 0.723882 0.872931 0.880259 0.841487 1.05624C0.810042 1.23222 0.850338 1.41339 0.95351 1.55988C1.05668 1.70638 1.21428 1.80621 1.39163 1.83741L3.16954 2.14654C3.71695 2.24298 4.22131 2.50394 4.61436 2.89413C5.0074 3.28432 5.27018 3.78489 5.36712 4.32812L7.76908 17.773C7.90667 18.5523 8.31695 19.2583 8.92766 19.7669C9.53837 20.2755 10.3103 20.5539 11.1076 20.5531H25.3557C26.0847 20.5554 26.7949 20.3239 27.3806 19.8932C27.9662 19.4625 28.396 18.8556 28.6059 18.1629L31.7947 7.67433C31.8243 7.57339 31.8308 7.46714 31.8136 7.36339C31.7964 7.25964 31.7561 7.16102 31.6955 7.07479C31.6318 6.99161 31.5498 6.92404 31.4557 6.87727C31.3616 6.83051 31.258 6.8058 31.1528 6.80504L31.1498 6.80603ZM27.3102 17.7661C27.1857 18.1821 26.9285 18.5468 26.5774 18.8054C26.2262 19.0641 25.8 19.2027 25.3626 19.2005H11.1146C10.6354 19.2016 10.1713 19.034 9.80491 18.7276C9.4385 18.4211 9.19349 17.9957 9.11343 17.5269L7.43672 8.1449H30.241L27.3102 17.7661Z" fill="black" stroke="#0B1725" stroke-width="0.5"/>
<path d="M25.2816 22.1755C24.5516 22.1755 23.8381 22.3903 23.2311 22.7927C22.6242 23.1951 22.1511 23.7671 21.8718 24.4363C21.5924 25.1055 21.5193 25.8418 21.6617 26.5522C21.8041 27.2626 22.1557 27.9152 22.6718 28.4273C23.188 28.9395 23.8456 29.2883 24.5615 29.4296C25.2775 29.5709 26.0196 29.4984 26.694 29.2212C27.3684 28.944 27.9448 28.4746 28.3503 27.8724C28.7558 27.2701 28.9723 26.5621 28.9723 25.8378C28.9723 25.3568 28.8769 24.8806 28.6914 24.4363C28.5059 23.992 28.234 23.5883 27.8913 23.2482C27.5486 22.9081 27.1417 22.6384 26.694 22.4543C26.2462 22.2703 25.7663 22.1755 25.2816 22.1755ZM25.2816 28.1542C24.8198 28.1544 24.3683 28.0187 23.9842 27.7642C23.6002 27.5098 23.3008 27.148 23.124 26.7247C22.9471 26.3014 22.9008 25.8355 22.9909 25.3861C23.0809 24.9366 23.3033 24.5238 23.6298 24.1998C23.9564 23.8758 24.3724 23.6551 24.8254 23.5658C25.2783 23.4764 25.7478 23.5224 26.1744 23.6978C26.601 23.8733 26.9656 24.1703 27.2221 24.5514C27.4785 24.9325 27.6153 25.3805 27.6151 25.8388C27.6135 26.4519 27.367 27.0394 26.9296 27.4726C26.4921 27.9057 25.8995 28.149 25.2816 28.1493V28.1542Z" fill="black" stroke="#0B1725" stroke-width="0.5"/>
</svg>
