<svg width="31" height="28" viewBox="0 0 31 28" fill="none" xmlns="http://www.w3.org/2000/svg">
<path d="M21.6331 0.5C20.4041 0.511517 19.1953 0.812836 18.1048 1.37945C17.0144 1.94606 16.0731 2.76197 15.3576 3.76081C14.6476 2.7553 13.707 1.9345 12.6144 1.36716C11.5219 0.799823 10.3092 0.502467 9.07805 0.5C4.53825 0.5 0.861328 4.63933 0.861328 9.74793C0.861328 18.4993 14.4398 27.0452 14.9905 27.3742C15.0955 27.4558 15.2246 27.5 15.3576 27.5C15.4905 27.5 15.6196 27.4558 15.7246 27.3742C16.2753 27.0442 29.8538 18.6229 29.8538 9.74793C29.8538 4.63933 26.1729 0.5 21.6331 0.5ZM15.3576 25.7229C13.2308 24.3179 2.32871 16.8469 2.32871 9.74693C2.32871 5.55176 5.35225 2.15135 9.08104 2.15135C10.2441 2.15923 11.3834 2.48114 12.3785 3.08304C13.3736 3.68494 14.1875 4.54446 14.7341 5.57071C14.7868 5.66028 14.8583 5.73734 14.9437 5.79655C15.0291 5.85577 15.1263 5.89572 15.2287 5.91364C15.3311 5.93157 15.4361 5.92704 15.5366 5.90037C15.637 5.87369 15.7305 5.82552 15.8104 5.75918C15.877 5.70561 15.9349 5.64203 15.982 5.57071C16.4009 4.76097 16.9901 4.0515 17.7093 3.49105C18.4285 2.93061 19.2606 2.53248 20.1483 2.32402C21.0361 2.11557 21.9585 2.10175 22.852 2.28349C23.7456 2.46524 24.5893 2.83826 25.325 3.37689C26.2955 4.12742 27.0773 5.09414 27.6081 6.20005C28.1389 7.30596 28.4041 8.5205 28.3824 9.74693C28.3864 16.9297 17.4813 24.3607 15.3576 25.7229Z" fill="#0B1725" stroke="#0B1725" stroke-width="0.3"/>
</svg>
