<svg width="20" height="24" viewBox="0 0 20 24" fill="none" xmlns="http://www.w3.org/2000/svg">
<path d="M18.4397 16.5029C17.7685 15.926 17.2291 15.2066 16.8594 14.395C16.4897 13.5835 16.2985 12.6995 16.2993 11.8048V9.24934C16.2963 7.70779 15.749 6.21876 14.7575 5.05417C13.766 3.88958 12.3964 3.12713 10.8987 2.90605V1.91659C10.8987 1.6735 10.8039 1.44036 10.6352 1.26846C10.4664 1.09657 10.2376 1 9.99893 1C9.76029 1 9.53142 1.09657 9.36268 1.26846C9.19393 1.44036 9.09913 1.6735 9.09913 1.91659V2.90605C7.60155 3.12715 6.23202 3.88963 5.24066 5.05424C4.2493 6.21885 3.70227 7.70787 3.69947 9.24934V11.8048C3.69995 12.7014 3.5079 13.5872 3.13677 14.4002C2.76565 15.2132 2.22444 15.9336 1.55109 16.511C1.30644 16.7242 1.13182 17.0086 1.05075 17.3259C0.969673 17.6433 0.98605 17.9784 1.09767 18.2859C1.20929 18.5935 1.41079 18.8589 1.67501 19.0462C1.93923 19.2335 2.25347 19.3339 2.57539 19.3337H17.4242C17.7471 19.3339 18.0623 19.2331 18.327 19.0448C18.5917 18.8565 18.7932 18.5898 18.9041 18.2809C19.0151 17.972 19.0301 17.6359 18.9472 17.318C18.8643 17.0001 18.6874 16.7159 18.4406 16.5038L18.4397 16.5029Z" stroke="#0B1725" stroke-width="1.3"/>
<path d="M9.99889 23C10.7763 22.9989 11.5296 22.7248 12.1318 22.2239C12.734 21.723 13.1483 21.026 13.3049 20.2502H6.69287C6.84946 21.026 7.26376 21.723 7.86596 22.2239C8.46816 22.7248 9.22145 22.9989 9.99889 23V23Z" stroke="#0B1725" stroke-width="1.3"/>
</svg>
