<svg width="24" height="24" viewBox="0 0 24 24" fill="none" xmlns="http://www.w3.org/2000/svg">
    <g clip-path="url(#a)">
        <path d="M23.116 5.854 12.432.063a.527.527 0 0 0-.5 0L1.247 5.853a.486.486 0 0 0-.182.174.448.448 0 0 0-.066.235v11.582c0 .083.022.164.066.235a.487.487 0 0 0 .182.173l10.683 5.792a.527.527 0 0 0 .501 0l10.684-5.791a.486.486 0 0 0 .182-.173.447.447 0 0 0 .066-.235V6.262a.448.448 0 0 0-.066-.235.487.487 0 0 0-.182-.173zm-10.937-4.84 9.684 5.248-9.684 5.247L2.5 6.262l9.678-5.248zM1.999 7.077l9.684 5.25V22.82L2 17.573V7.077zM12.684 22.82V12.326l9.68-5.249v10.496l-9.68 5.247z" fill="#0B1725"/>
        <path d="M5.988 17.38 3.7 16.14a.523.523 0 0 0-.685.173.451.451 0 0 0 .184.643l2.289 1.24a.523.523 0 0 0 .685-.172.452.452 0 0 0 .05-.358.46.46 0 0 0-.087-.164.494.494 0 0 0-.147-.121zM3.198 14.836l1.26.683a.523.523 0 0 0 .684-.173.452.452 0 0 0 .05-.357.46.46 0 0 0-.086-.165.494.494 0 0 0-.148-.12L3.7 14.02a.53.53 0 0 0-.38-.047.499.499 0 0 0-.305.22.446.446 0 0 0-.05.357c.035.12.119.223.234.285z" fill="#0B1725"/>
        <path fill-rule="evenodd" clip-rule="evenodd" d="M15.47 10.27v4.194l2.152-2.448 1.714.353V8.175L8.151 2.112 4.285 4.205l1.325.719 9.86 5.346z" fill="#000"/>
    </g>
    <defs>
        <clipPath id="a">
            <path fill="#fff" d="M0 0h24v24H0z"/>
        </clipPath>
    </defs>
</svg>
