<svg width="24" height="24" viewBox="0 0 24 24" fill="none" xmlns="http://www.w3.org/2000/svg">
<g clip-path="url(#clip0_353_3153)">
<path d="M1.55932 3.0377H22.4407C22.8123 3.0377 23.1 3.36454 23.1 3.74787V7.93642C23.1 8.31974 22.8123 8.64659 22.4407 8.64659H21.9958V20.2522C21.9958 20.6355 21.7082 20.9624 21.3365 20.9624H2.66342C2.29176 20.9624 2.0041 20.6355 2.0041 20.2522V8.64659H1.55932C1.18765 8.64659 0.9 8.31974 0.9 7.93642V3.74787C0.9 3.3646 1.18765 3.0377 1.55932 3.0377ZM2.94992 19.9488H21.0501V8.64659H2.94986L2.94992 19.9488ZM1.84576 7.63303H22.1542V4.05125H1.84576V7.63303Z" fill="#0B1725" stroke="#0B1725" stroke-width="0.2"/>
<path d="M14.4425 13H9.55752C8.69869 13 8 12.3421 8 11.5333V11.4667C8 10.6579 8.69869 10 9.55752 10H14.4425C15.3013 10 16 10.6579 16 11.4667V11.5333C16 12.3421 15.3013 13 14.4425 13ZM15.0088 11.4667C15.0088 11.1726 14.7548 10.9333 14.4425 10.9333H9.55752C9.24524 10.9333 8.99115 11.1726 8.99115 11.4667V11.5333C8.99115 11.8274 9.24524 12.0667 9.55752 12.0667H14.4425C14.7548 12.0667 15.0088 11.8274 15.0088 11.5333V11.4667Z" fill="#0B1725"/>
</g>
<defs>
<clipPath id="clip0_353_3153">
<rect width="22" height="24" fill="white" transform="matrix(-1 0 0 1 23 0)"/>
</clipPath>
</defs>
</svg>
