<svg width="32" height="32" viewBox="0 0 32 32" fill="none" xmlns="http://www.w3.org/2000/svg">
<g clip-path="url(#clip0_363_3188)">
<path d="M0.813559 2.55654H31.1864C31.734 2.55654 32.15 3.05135 32.15 3.6218V9.90463C32.15 10.4751 31.734 10.9699 31.1864 10.9699H30.544V28.3783C30.544 28.9487 30.128 29.4436 29.5804 29.4436H2.41952C1.87194 29.4436 1.45596 28.9487 1.45596 28.3783V10.9699H0.813559C0.265974 10.9699 -0.150002 10.4751 -0.150002 9.90463V3.6218C-0.150002 3.05145 0.265966 2.55654 0.813559 2.55654ZM2.84079 27.9232H29.1592V10.9699H2.84071L2.84079 27.9232ZM1.23475 9.44954H30.7653V4.07688H1.23475V9.44954Z" fill="#29B6AB" stroke="#29B6AB" stroke-width="0.3"/>
<path d="M18.6733 17.0174H13.3271C12.2882 17.0174 11.4725 16.0729 11.4725 14.9497V14.8625C11.4725 13.7393 12.2882 12.7948 13.3271 12.7948H18.6733C19.7122 12.7948 20.5279 13.7393 20.5279 14.8625V14.9497C20.5279 16.0729 19.7122 17.0174 18.6733 17.0174ZM19.1432 14.8625C19.1432 14.5438 18.9161 14.3152 18.6733 14.3152H13.3271C13.0843 14.3152 12.8572 14.5438 12.8572 14.8625V14.9497C12.8572 15.2684 13.0843 15.497 13.3271 15.497H18.6733C18.9161 15.497 19.1432 15.2684 19.1432 14.9497V14.8625Z" fill="#29B6AB" stroke="#29B6AB" stroke-width="0.3"/>
</g>
<defs>
<clipPath id="clip0_363_3188">
<rect width="32" height="32" fill="white" transform="matrix(-1 0 0 1 32 0)"/>
</clipPath>
</defs>
</svg>
