<svg width="19" height="23" viewBox="0 0 19 23" fill="none" xmlns="http://www.w3.org/2000/svg">
<path d="M9.39537 11.5C10.493 11.5 11.566 11.1774 12.4786 10.5731C13.3912 9.96873 14.1026 9.10975 14.5226 8.10476C14.9426 7.09977 15.0525 5.9939 14.8384 4.927C14.6243 3.86011 14.0957 2.8801 13.3196 2.11091C12.5434 1.34173 11.5546 0.817902 10.4781 0.605683C9.40153 0.393465 8.28568 0.502383 7.27161 0.918665C6.25754 1.33495 5.3908 2.0399 4.781 2.94437C4.17119 3.84884 3.8457 4.9122 3.8457 6C3.8457 7.45869 4.4304 8.85764 5.47117 9.88909C6.51193 10.9205 7.92351 11.5 9.39537 11.5ZM9.39537 1.18787C10.3557 1.18787 11.2945 1.47009 12.093 1.99886C12.8915 2.52762 13.5139 3.27917 13.8814 4.15848C14.2489 5.03778 14.345 6.00534 14.1577 6.9388C13.9703 7.87226 13.5079 8.72971 12.8288 9.40269C12.1497 10.0757 11.2846 10.534 10.3427 10.7197C9.40076 10.9053 8.42447 10.8101 7.53723 10.4458C6.64998 10.0816 5.89163 9.46483 5.35809 8.67348C4.82455 7.88213 4.53978 6.95175 4.53978 6C4.53978 4.72374 5.05134 3.49976 5.96195 2.59731C6.87255 1.69486 8.10759 1.18787 9.39537 1.18787V1.18787Z" fill="#0B1725" stroke="#0B1725" stroke-width="0.8"/>
<path d="M12.3424 13.3043H6.44616C4.97477 13.3058 3.56409 13.8857 2.52366 14.9169C1.48323 15.948 0.898035 17.346 0.896484 18.8043V22.5H17.8921V18.8043C17.8905 17.346 17.3053 15.948 16.2649 14.9169C15.2245 13.8857 13.8138 13.3058 12.3424 13.3043V13.3043ZM17.197 21.8121H1.59056V18.8043C1.59211 17.5285 2.10418 16.3054 3.01444 15.4033C3.92471 14.5012 5.15885 13.9937 6.44616 13.9921H12.3424C13.6297 13.9937 14.8638 14.5012 15.7741 15.4033C16.6844 16.3054 17.1964 17.5285 17.198 18.8043L17.197 21.8121Z" fill="#0B1725" stroke="#0B1725" stroke-width="0.8"/>
</svg>
