<svg width="24" height="24" viewBox="0 0 24 24" fill="none" xmlns="http://www.w3.org/2000/svg">
    <path d="M21.62 11.558h-.207v-8.03a.505.505 0 0 0-.17-.373.611.611 0 0 0-.41-.155h-.756l-16.956.01a2.452 2.452 0 0 0-1.492.676c-.39.383-.614.882-.629 1.404V18.829c0 .566.247 1.11.688 1.51.44.4 1.037.625 1.66.625h17.484a.611.611 0 0 0 .41-.154c.11-.1.17-.234.17-.374V15.81h.207a.61.61 0 0 0 .41-.155c.11-.099.171-.233.171-.373v-3.195a.505.505 0 0 0-.17-.373.611.611 0 0 0-.41-.155zm-.581 1.056v2.142h-3.635v-2.142h3.635zM3.347 4.056h16.902v2.153H3.347c-.314 0-.615-.114-.838-.316a1.032 1.032 0 0 1-.348-.761V5.111a1.04 1.04 0 0 1 .358-.746c.221-.197.518-.308.828-.309zm16.902 15.85H3.347c-.315 0-.616-.113-.839-.315a1.032 1.032 0 0 1-.348-.762V6.974c.36.192.77.293 1.186.292h16.902v4.291h-3.425a.612.612 0 0 0-.41.155.506.506 0 0 0-.17.373v3.199c0 .07.015.138.044.202.03.064.072.122.126.171.054.05.118.088.188.115a.63.63 0 0 0 .222.04h3.428l-.002 4.095z" fill="#0B1725"/>
</svg>
