<svg width="24" height="24" viewBox="0 0 24 24" fill="none" xmlns="http://www.w3.org/2000/svg">
    <path d="M17.824 3.9H5.176C2.818 3.9.9 5.824.9 8.189v7.05c0 2.365 1.918 4.29 4.276 4.29h12.648c2.358 0 4.276-1.925 4.276-4.29V8.19c0-2.365-1.918-4.289-4.276-4.289zm3.219 11.34a3.229 3.229 0 0 1-3.219 3.231H5.176a3.23 3.23 0 0 1-3.219-3.231V8.189a3.23 3.23 0 0 1 3.219-3.232h12.648a3.23 3.23 0 0 1 3.219 3.232v7.05z" fill="#0B1725" stroke="#0B1725" stroke-width=".2"/>
    <path d="M15.348 12.386a.529.529 0 0 0 0-.913L9.41 7.995a.53.53 0 0 0-.796.456v6.955a.53.53 0 0 0 .795.456l5.939-3.476zm0 0-.05-.086.05.086zM9.67 14.484v-5.11l4.364 2.555-4.364 2.555z" fill="#0B1725" stroke="#0B1725" stroke-width=".2"/>
</svg>
