<svg width="21" height="15" viewBox="0 0 21 15" fill="none" xmlns="http://www.w3.org/2000/svg">
    <path d="M20.01 2.747a2.475 2.475 0 0 0-1.742-1.742c-1.546-.423-7.73-.423-7.73-.423s-6.185 0-7.732.407a2.525 2.525 0 0 0-1.74 1.758 26.096 26.096 0 0 0-.408 4.754c-.01 1.594.126 3.185.408 4.753a2.476 2.476 0 0 0 1.741 1.742c1.563.423 7.731.423 7.731.423s6.185 0 7.731-.407a2.474 2.474 0 0 0 1.742-1.742c.28-1.569.416-3.16.406-4.753.018-1.6-.118-3.197-.407-4.77zM8.569 10.464V4.538l5.142 2.963-5.142 2.963z" fill="#fff"/>
</svg>
