<?xml version="1.0" encoding="utf-8"?>
<!-- Generator: Adobe Illustrator 16.0.0, SVG Export Plug-In . SVG Version: 6.00 Build 0)  -->
<!DOCTYPE svg PUBLIC "-//W3C//DTD SVG 1.1//EN" "http://www.w3.org/Graphics/SVG/1.1/DTD/svg11.dtd">
<svg version="1.1" id="Layer_1" xmlns="http://www.w3.org/2000/svg" xmlns:xlink="http://www.w3.org/1999/xlink" x="0px" y="0px"
	 width="900px" height="900px" viewBox="0 0 900 900" enable-background="new 0 0 900 900" xml:space="preserve">
<rect x="54.5" y="82.5" fill="#FFFFFF" width="796" height="752"/>
<path fill="#0077B7" d="M818.588,0H81.412C36.45,0,0,36.45,0,81.412v737.173C0,863.55,36.45,900,81.412,900h737.173
	C863.55,900,900,863.55,900,818.585V81.412C900,36.45,863.55,0,818.588,0z M278.498,777.119c0,13.086-10.606,23.692-23.692,23.692
	H153.954c-13.085,0-23.692-10.606-23.692-23.692V354.353c0-13.085,10.607-23.692,23.692-23.692h100.852
	c13.086,0,23.692,10.607,23.692,23.692V777.119z M204.38,290.809c-52.914,0-95.81-42.896-95.81-95.81
	c0-52.914,42.896-95.81,95.81-95.81s95.811,42.896,95.811,95.81C300.19,247.912,257.296,290.809,204.38,290.809z M805.547,779.027
	c0,12.03-9.754,21.784-21.783,21.784H675.542c-12.03,0-21.784-9.754-21.784-21.784V580.727c0-29.583,8.678-129.631-77.308-129.631
	c-66.696,0-80.226,68.479-82.941,99.212v228.72c0,12.03-9.752,21.784-21.784,21.784H367.057c-12.03,0-21.784-9.754-21.784-21.784
	V352.444c0-12.03,9.754-21.784,21.784-21.784h104.668c12.03,0,21.784,9.754,21.784,21.784v36.884
	c24.731-37.115,61.485-65.762,139.74-65.762c173.29,0,172.298,161.896,172.298,250.851V779.027L805.547,779.027z"/>
</svg>
