<?xml version="1.0" encoding="utf-8"?>
<!-- Generator: Adobe Illustrator 16.0.0, SVG Export Plug-In . SVG Version: 6.00 Build 0)  -->
<!DOCTYPE svg PUBLIC "-//W3C//DTD SVG 1.1//EN" "http://www.w3.org/Graphics/SVG/1.1/DTD/svg11.dtd">
<svg version="1.1" id="Layer_1" xmlns="http://www.w3.org/2000/svg" xmlns:xlink="http://www.w3.org/1999/xlink" x="0px" y="0px"
	 width="512px" height="358.485px" viewBox="0 0 512 358.485" enable-background="new 0 0 512 358.485" xml:space="preserve">
<rect x="164.5" y="83.5" fill="#FFFFFF" stroke="#000000" stroke-miterlimit="10" width="207" height="181"/>
<path fill="#FF0000" d="M501.453,56.095c-5.902-21.934-23.195-39.223-45.125-45.129C416.262,0.001,255.996,0.001,255.996,0.001
	s-160.262,0-200.328,10.547C34.16,16.45,16.445,34.165,10.543,56.095C0,96.157,0,179.243,0,179.243s0,83.504,10.543,123.148
	c5.906,21.93,23.195,39.223,45.129,45.129C96.156,358.485,256,358.485,256,358.485s160.262,0,200.328-10.547
	c21.934-5.902,39.223-23.195,45.129-45.125C512,262.747,512,179.665,512,179.665S512.422,96.157,501.453,56.095z"/>
<path fill="#FFFFFF" d="M204.969,256.001l133.27-76.758l-133.27-76.758V256.001z"/>
</svg>
